<svg id="logo"
  xmlns="http://www.w3.org/2000/svg" viewBox="0 0 100 100">
  <title>Loader Logo</title>

  <g id="B" transform="translate(0.000000,96.000000) scale(0.100000,-0.100000)" fill="#1b74e4" stroke="none">
    <path d="M362 799 c-85 -10 -155 -38 -172 -68 -22 -42 10 -163 79 -299 22 -44
28 -63 19 -66 -7 -2 -41 -8 -75 -14 -120 -20 -169 -63 -138 -121 33 -65 195
-97 440 -88 207 8 319 41 347 103 10 20 8 29 -9 52 -29 40 -80 71 -145 89 -32
9 -58 21 -58 26 0 5 8 24 19 41 10 17 29 58 42 91 29 76 36 85 65 85 56 0 70
-76 23 -126 -26 -28 -44 -30 -53 -7 -5 12 -10 13 -18 5 -15 -15 7 -42 34 -42
49 0 88 51 88 113 0 47 -27 78 -68 79 -32 1 -72 -25 -72 -47 0 -6 -20 -53 -45
-104 -50 -103 -54 -121 -25 -121 34 0 151 -47 176 -71 34 -31 28 -68 -12 -91
-63 -36 -168 -52 -354 -52 -186 0 -279 15 -330 53 -65 47 5 108 130 113 64 3
65 3 68 -25 5 -42 50 -61 147 -61 56 0 90 6 113 17 38 21 42 50 10 71 -30 19
-125 36 -202 36 l-61 1 -54 115 c-41 88 -54 129 -58 177 l-5 64 34 16 c116 55
392 47 452 -13 26 -25 11 -43 -57 -67 -75 -25 -267 -25 -320 1 -32 16 -36 21
-25 32 21 22 125 37 198 29 95 -10 96 -19 2 -25 -93 -6 -111 -23 -27 -28 73
-4 135 13 135 37 0 26 -21 32 -126 38 -146 9 -246 -32 -204 -82 46 -55 294
-60 412 -8 66 28 62 83 -8 114 -38 17 -181 41 -224 38 -8 -1 -48 -5 -88 -10z
m186 -475 c23 -9 42 -19 42 -24 0 -15 -62 -30 -125 -30 -34 0 -76 5 -94 11
-25 9 -31 16 -31 41 l0 29 83 -6 c45 -3 101 -13 125 -21z"/>
  </g>
</svg>
