<svg width="813.942529296875px" height="120.81002502441406px" xmlns="http://www.w3.org/2000/svg" viewBox="-156.9712646484375 14.59498748779297 813.942529296875 120.81002502441406" style="background: rgba(0, 0, 0, 0);" preserveAspectRatio="xMidYMid">
  <defs>
    <filter id="editing-hole" x="-100%" y="-100%" width="300%" height="300%">
      <feFlood flood-color="#000" result="black"></feFlood>
      <feMorphology operator="dilate" radius="2" in="SourceGraphic" result="erode"></feMorphology>
      <feGaussianBlur in="erode" stdDeviation="4" result="blur"></feGaussianBlur>
      <feOffset in="blur" dx="2" dy="2" result="offset"></feOffset>
      <feComposite operator="atop" in="offset" in2="black" result="merge"></feComposite>
      <feComposite operator="in" in="merge" in2="SourceGraphic" result="inner-shadow"></feComposite>
    </filter>
  </defs>
  <g filter="url(#editing-hole)">
    <g transform="translate(-39.058122515678406, 99)">
      <path d="M6.53 0L-0.83 0L10.75-42.24L24.13-42.24L27.07-18.11L38.98-42.24L50.18-42.24L51.33-10.62L51.33-10.62Q51.58-4.35 54.66-2.43L54.66-2.43L54.66-2.43Q53.95-1.15 51.90 0.06L51.90 0.06L51.90 0.06Q49.86 1.28 47.14 1.28L47.14 1.28L47.14 1.28Q44.42 1.28 42.82 0.51L42.82 0.51L42.82 0.51Q41.22-0.26 40.32-1.54L40.32-1.54L40.32-1.54Q38.72-3.84 38.72-8.26L38.72-8.26L38.72-28.03L26.11 0L18.18 0L13.70-28.74L6.53 0ZM76.54-22.46L76.54-22.46L76.54-22.46Q77.44-24.83 77.44-26.88L77.44-26.88L77.44-26.88Q77.44-30.66 74.37-30.66L74.37-30.66L74.37-30.66Q72.77-30.66 71.46-29.22L71.46-29.22L71.46-29.22Q70.14-27.78 70.14-25.98L70.14-25.98L70.14-25.98Q70.14-24.70 71.17-23.68L71.17-23.68L71.17-23.68Q72.64-22.27 76.42-19.97L76.42-19.97L76.42-19.97Q80.19-17.66 81.63-15.78L81.63-15.78L81.63-15.78Q83.07-13.89 83.07-11.30L83.07-11.30L83.07-11.30Q83.07-8.70 81.82-6.34L81.82-6.34L81.82-6.34Q80.58-3.97 78.34-2.30L78.34-2.30L78.34-2.30Q73.54 1.28 65.86 1.28L65.86 1.28L65.86 1.28Q61.70 1.28 58.50-0.90L58.50-0.90L58.50-0.90Q55.30-3.01 55.30-5.50L55.30-5.50L55.30-5.50Q55.30-8 57.12-9.47L57.12-9.47L57.12-9.47Q58.94-10.94 61.63-10.94L61.63-10.94L61.63-10.94Q64.32-10.94 65.98-9.92L65.98-9.92L65.98-9.92Q65.15-7.81 65.15-6.40L65.15-6.40L65.15-6.40Q65.15-2.18 68.74-2.18L68.74-2.18L68.74-2.18Q70.27-2.18 71.30-3.14L71.30-3.14L71.30-3.14Q72.32-4.10 72.32-5.76L72.32-5.76L72.32-5.76Q72.32-9.02 66.82-12.48L66.82-12.48L66.82-12.48Q62.34-15.42 61.31-16.58L61.31-16.58L61.31-16.58Q59.58-18.62 59.58-21.18L59.58-21.18L59.58-21.18Q59.58-23.74 60.80-26.18L60.80-26.18L60.80-26.18Q62.02-28.61 64.26-30.34L64.26-30.34L64.26-30.34Q68.93-33.92 77.06-33.92L77.06-33.92L77.06-33.92Q81.22-33.92 83.68-32.26L83.68-32.26L83.68-32.26Q86.14-30.59 86.14-27.78L86.14-27.78L86.14-27.78Q86.14-24.96 84.45-23.36L84.45-23.36L84.45-23.36Q82.75-21.76 79.68-21.76L79.68-21.76L79.68-21.76Q77.57-21.76 76.54-22.46ZM103.87-3.52L103.87-3.52L103.87-3.52Q101.89 1.28 95.55 1.28L95.55 1.28L95.55 1.28Q92.29 1.28 90.24-0.96L90.24-0.96L90.24-0.96Q88.51-2.94 88.51-4.93L88.51-4.93L88.51-4.93Q88.51-10.11 90.88-20.22L90.88-20.22L93.25-32.64L106.24-33.92L102.34-13.70L102.34-13.70Q101.25-8.96 101.25-7.30L101.25-7.30L101.25-7.30Q101.25-3.65 103.87-3.52ZM94.40-41.54L94.40-41.54L94.40-41.54Q94.40-44.03 96.48-45.38L96.48-45.38L96.48-45.38Q98.56-46.72 101.57-46.72L101.57-46.72L101.57-46.72Q104.58-46.72 106.40-45.38L106.40-45.38L106.40-45.38Q108.22-44.03 108.22-41.54L108.22-41.54L108.22-41.54Q108.22-39.04 106.21-37.76L106.21-37.76L106.21-37.76Q104.19-36.48 101.18-36.48L101.18-36.48L101.18-36.48Q98.18-36.48 96.29-37.76L96.29-37.76L96.29-37.76Q94.40-39.04 94.40-41.54ZM155.39 1.28L155.39 1.28L155.39 1.28Q147.65 1.28 147.65-4.74L147.65-4.74L147.65-4.74Q147.65-7.36 148.77-12.45L148.77-12.45L148.77-12.45Q149.89-17.54 150.27-19.58L150.27-19.58L150.27-19.58Q151.17-24.26 151.17-25.73L151.17-25.73L151.17-25.73Q151.17-28.99 148.74-28.99L148.74-28.99L148.74-28.99Q147.14-28.99 145.60-26.78L145.60-26.78L145.60-26.78Q144.06-24.58 143.36-20.16L143.36-20.16L139.39 0L126.91 1.28L130.37-16.13L130.37-16.13Q130.94-19.01 131.46-22.27L131.46-22.27L131.46-22.27Q131.97-25.54 131.97-26.05L131.97-26.05L131.97-26.05Q131.97-28.99 129.79-28.99L129.79-28.99L129.79-28.99Q128.32-28.99 126.72-26.82L126.72-26.82L126.72-26.82Q125.12-24.64 124.22-20.16L124.22-20.16L120.32 0L107.71 1.28L114.43-32.64L124.86-33.92L123.78-27.46L123.78-27.46Q125.44-30.91 128.51-32.42L128.51-32.42L128.51-32.42Q131.58-33.92 136.38-33.92L136.38-33.92L136.38-33.92Q139.14-33.92 140.93-32.58L140.93-32.58L140.93-32.58Q142.72-31.23 143.30-29.06L143.30-29.06L143.30-29.06Q144.38-31.30 147.17-32.61L147.17-32.61L147.17-32.61Q149.95-33.92 153.38-33.92L153.38-33.92L153.38-33.92Q156.80-33.92 158.50-33.18L158.50-33.18L158.50-33.18Q160.19-32.45 161.22-31.23L161.22-31.23L161.22-31.23Q162.94-28.99 162.94-24.90L162.94-24.90L162.94-24.90Q162.94-20.86 161.22-12.48L161.22-12.48L161.22-12.48Q160.32-8.38 160.32-6.88L160.32-6.88L160.32-6.88Q160.32-5.38 161.18-4.48L161.18-4.48L161.18-4.48Q162.05-3.58 163.33-3.46L163.33-3.46L163.33-3.46Q162.69-1.28 160.48 0L160.48 0L160.48 0Q158.27 1.28 155.39 1.28ZM182.21 1.28L182.21 1.28L182.21 1.28Q168.13 1.28 168.13-11.97L168.13-11.97L168.13-11.97Q168.13-21.38 173.31-27.46L173.31-27.46L173.31-27.46Q178.82-33.92 188.35-33.92L188.35-33.92L188.35-33.92Q195.26-33.92 198.78-30.72L198.78-30.72L198.78-30.72Q202.30-27.52 202.30-20.80L202.30-20.80L202.30-20.80Q202.30-10.56 196.80-4.61L196.80-4.61L196.80-4.61Q191.42 1.28 182.21 1.28ZM183.87-26.56L183.87-26.56L183.87-26.56Q183.10-24.83 182.50-22.24L182.50-22.24L182.50-22.24Q181.89-19.65 181.12-15.55L181.12-15.55L181.12-15.55Q180.35-11.46 180.35-6.40L180.35-6.40L180.35-6.40Q180.35-4.74 180.90-3.65L180.90-3.65L180.90-3.65Q181.44-2.56 182.91-2.56L182.91-2.56L182.91-2.56Q184.38-2.56 185.31-3.26L185.31-3.26L185.31-3.26Q186.24-3.97 186.94-5.63L186.94-5.63L186.94-5.63Q188.22-8.58 189.25-14.05L189.25-14.05L189.25-14.05Q190.27-19.52 190.37-21.89L190.37-21.89L190.37-21.89Q190.46-24.26 190.46-26.02L190.46-26.02L190.46-26.02Q190.46-27.78 189.95-28.93L189.95-28.93L189.95-28.93Q189.44-30.08 188-30.08L188-30.08L188-30.08Q186.56-30.08 185.60-29.18L185.60-29.18L185.60-29.18Q184.64-28.29 183.87-26.56ZM233.15 1.28L233.15 1.28L233.15 1.28Q225.41 1.28 225.41-4.74L225.41-4.74L225.41-4.74Q225.47-6.40 225.98-9.22L225.98-9.22L227.14-15.10L227.14-15.10Q228.86-23.42 228.86-25.28L228.86-25.28L228.86-25.28Q228.86-28.99 226.69-28.99L226.69-28.99L226.69-28.99Q223.04-28.99 221.12-19.46L221.12-19.46L217.34 0L204.48 1.28L211.14-32.70L221.63-33.92L220.61-27.65L220.61-27.65Q223.62-33.92 232.83-33.92L232.83-33.92L232.83-33.92Q237.31-33.92 239.20-32.03L239.20-32.03L239.20-32.03Q241.09-30.14 241.09-25.92L241.09-25.92L241.09-25.92Q241.09-21.95 239.04-12.67L239.04-12.67L239.04-12.67Q238.08-8.51 238.08-6.94L238.08-6.94L238.08-6.94Q238.08-5.38 238.94-4.48L238.94-4.48L238.94-4.48Q239.81-3.58 241.09-3.46L241.09-3.46L241.09-3.46Q240.45-1.28 238.24 0L238.24 0L238.24 0Q236.03 1.28 233.15 1.28ZM283.26-4.80L283.26-4.80L283.26-4.80Q283.26-9.28 285.06-18.24L285.06-18.24L275.58-18.24L272.06 0L258.69 0L266.82-42.24L280.32-42.24L276.61-23.36L286.08-23.36L289.60-42.24L303.10-42.24L303.10-42.24Q302.21-37.50 301.06-32.19L301.06-32.19L298.88-21.76L298.88-21.76Q296.45-9.60 296.45-4.29L296.45-4.29L296.45-4.29Q296.45-2.11 297.15-0.90L297.15-0.90L297.15-0.90Q293.95 1.28 290.21 1.28L290.21 1.28L290.21 1.28Q286.46 1.28 284.86-0.51L284.86-0.51L284.86-0.51Q283.26-2.30 283.26-4.80ZM330.56-10.82L330.56-10.82L330.56-10.82Q332.16-9.73 332.16-7.33L332.16-7.33L332.16-7.33Q332.16-4.93 330.94-3.39L330.94-3.39L330.94-3.39Q329.73-1.86 327.74-0.83L327.74-0.83L327.74-0.83Q323.65 1.28 319.23 1.28L319.23 1.28L319.23 1.28Q314.82 1.28 312.22 0.32L312.22 0.32L312.22 0.32Q309.63-0.64 307.90-2.43L307.90-2.43L307.90-2.43Q304.51-5.82 304.51-12.03L304.51-12.03L304.51-12.03Q304.51-21.70 309.76-27.58L309.76-27.58L309.76-27.58Q315.39-33.92 325.18-33.92L325.18-33.92L325.18-33.92Q331.26-33.92 334.27-31.36L334.27-31.36L334.27-31.36Q336.51-29.44 336.51-26.30L336.51-26.30L336.51-26.30Q336.51-15.04 317.06-15.04L317.06-15.04L317.06-15.04Q316.80-13.38 316.80-11.97L316.80-11.97L316.80-11.97Q316.80-9.02 318.11-7.90L318.11-7.90L318.11-7.90Q319.42-6.78 321.86-6.78L321.86-6.78L321.86-6.78Q324.29-6.78 326.88-7.90L326.88-7.90L326.88-7.90Q329.47-9.02 330.56-10.82ZM317.50-17.79L317.50-17.79L317.50-17.79Q322.05-17.79 324.67-20.61L324.67-20.61L324.67-20.61Q327.30-23.30 327.30-27.58L327.30-27.58L327.30-27.58Q327.30-29.06 326.75-29.86L326.75-29.86L326.75-29.86Q326.21-30.66 325.12-30.66L325.12-30.66L325.12-30.66Q324.03-30.66 323.10-30.24L323.10-30.24L323.10-30.24Q322.18-29.82 321.22-28.42L321.22-28.42L321.22-28.42Q318.85-25.22 317.50-17.79ZM384.77 1.28L384.77 1.28L384.77 1.28Q377.02 1.28 377.02-4.74L377.02-4.74L377.02-4.74Q377.02-7.36 378.14-12.45L378.14-12.45L378.14-12.45Q379.26-17.54 379.65-19.58L379.65-19.58L379.65-19.58Q380.54-24.26 380.54-25.73L380.54-25.73L380.54-25.73Q380.54-28.99 378.11-28.99L378.11-28.99L378.11-28.99Q376.51-28.99 374.98-26.78L374.98-26.78L374.98-26.78Q373.44-24.58 372.74-20.16L372.74-20.16L368.77 0L356.29 1.28L359.74-16.13L359.74-16.13Q360.32-19.01 360.83-22.27L360.83-22.27L360.83-22.27Q361.34-25.54 361.34-26.05L361.34-26.05L361.34-26.05Q361.34-28.99 359.17-28.99L359.17-28.99L359.17-28.99Q357.70-28.99 356.10-26.82L356.10-26.82L356.10-26.82Q354.50-24.64 353.60-20.16L353.60-20.16L349.70 0L337.09 1.28L343.81-32.64L354.24-33.92L353.15-27.46L353.15-27.46Q354.82-30.91 357.89-32.42L357.89-32.42L357.89-32.42Q360.96-33.92 365.76-33.92L365.76-33.92L365.76-33.92Q368.51-33.92 370.30-32.58L370.30-32.58L370.30-32.58Q372.10-31.23 372.67-29.06L372.67-29.06L372.67-29.06Q373.76-31.30 376.54-32.61L376.54-32.61L376.54-32.61Q379.33-33.92 382.75-33.92L382.75-33.92L382.75-33.92Q386.18-33.92 387.87-33.18L387.87-33.18L387.87-33.18Q389.57-32.45 390.59-31.23L390.59-31.23L390.59-31.23Q392.32-28.99 392.32-24.90L392.32-24.90L392.32-24.90Q392.32-20.86 390.59-12.48L390.59-12.48L390.59-12.48Q389.70-8.38 389.70-6.88L389.70-6.88L389.70-6.88Q389.70-5.38 390.56-4.48L390.56-4.48L390.56-4.48Q391.42-3.58 392.70-3.46L392.70-3.46L392.70-3.46Q392.06-1.28 389.86 0L389.86 0L389.86 0Q387.65 1.28 384.77 1.28ZM396.80-3.07L396.80-3.07L404.74-44.80L417.73-46.08L415.74-36.29L415.74-36.29Q415.04-33.28 414.14-31.17L414.14-31.17L414.14-31.17Q415.55-32.96 418.62-33.66L418.62-33.66L418.62-33.66Q419.52-33.92 420.61-33.92L420.61-33.92L420.61-33.92Q426.56-33.92 429.82-30.30L429.82-30.30L429.82-30.30Q433.09-26.69 433.09-19.71L433.09-19.71L433.09-19.71Q433.09-10.62 427.90-4.93L427.90-4.93L427.90-4.93Q422.34 1.28 412.22 1.28L412.22 1.28L412.22 1.28Q405.25 1.28 400.00-1.02L400.00-1.02L400.00-1.02Q398.14-1.86 396.80-3.07ZM413.06-22.40L409.66-3.65L409.66-3.65Q411.01-2.50 412.67-2.50L412.67-2.50L412.67-2.50Q414.34-2.50 415.30-3.14L415.30-3.14L415.30-3.14Q416.26-3.78 416.96-5.06L416.96-5.06L416.96-5.06Q418.88-8.51 420.42-19.07L420.42-19.07L420.42-19.07Q420.86-22.08 420.86-25.09L420.86-25.09L420.86-25.09Q420.86-28.10 420.19-29.06L420.19-29.06L420.19-29.06Q419.52-30.02 418.24-30.02L418.24-30.02L418.24-30.02Q414.34-30.02 413.06-22.40L413.06-22.40ZM456.96-17.98L456.96-17.98L456.96-17.98Q459.26-22.08 459.26-26.24L459.26-26.24L459.26-26.24Q459.26-28.99 457.28-28.99L457.28-28.99L457.28-28.99Q455.74-28.99 454.14-26.37L454.14-26.37L454.14-26.37Q452.48-23.74 451.97-20.35L451.97-20.35L448.64 0L435.39 1.28L441.92-32.64L452.48-33.92L451.33-27.46L451.33-27.46Q454.46-33.92 461.50-33.92L461.50-33.92L461.50-33.92Q465.22-33.92 467.23-32L467.23-32L467.23-32Q469.25-30.08 469.25-26.14L469.25-26.14L469.25-26.14Q469.25-22.21 466.66-19.71L466.66-19.71L466.66-19.71Q464.06-17.22 459.65-17.22L459.65-17.22L459.65-17.22Q457.73-17.22 456.96-17.98ZM484.22 1.28L484.22 1.28L484.22 1.28Q470.14 1.28 470.14-11.97L470.14-11.97L470.14-11.97Q470.14-21.38 475.33-27.46L475.33-27.46L475.33-27.46Q480.83-33.92 490.37-33.92L490.37-33.92L490.37-33.92Q497.28-33.92 500.80-30.72L500.80-30.72L500.80-30.72Q504.32-27.52 504.32-20.80L504.32-20.80L504.32-20.80Q504.32-10.56 498.82-4.61L498.82-4.61L498.82-4.61Q493.44 1.28 484.22 1.28ZM485.89-26.56L485.89-26.56L485.89-26.56Q485.12-24.83 484.51-22.24L484.51-22.24L484.51-22.24Q483.90-19.65 483.14-15.55L483.14-15.55L483.14-15.55Q482.37-11.46 482.37-6.40L482.37-6.40L482.37-6.40Q482.37-4.74 482.91-3.65L482.91-3.65L482.91-3.65Q483.46-2.56 484.93-2.56L484.93-2.56L484.93-2.56Q486.40-2.56 487.33-3.26L487.33-3.26L487.33-3.26Q488.26-3.97 488.96-5.63L488.96-5.63L488.96-5.63Q490.24-8.58 491.26-14.05L491.26-14.05L491.26-14.05Q492.29-19.52 492.38-21.89L492.38-21.89L492.38-21.89Q492.48-24.26 492.48-26.02L492.48-26.02L492.48-26.02Q492.48-27.78 491.97-28.93L491.97-28.93L491.97-28.93Q491.46-30.08 490.02-30.08L490.02-30.08L490.02-30.08Q488.58-30.08 487.62-29.18L487.62-29.18L487.62-29.18Q486.66-28.29 485.89-26.56ZM554.18 1.28L554.18 1.28L554.18 1.28Q546.43 1.28 546.43-4.74L546.43-4.74L546.43-4.74Q546.43-7.36 547.55-12.45L547.55-12.45L547.55-12.45Q548.67-17.54 549.06-19.58L549.06-19.58L549.06-19.58Q549.95-24.26 549.95-25.73L549.95-25.73L549.95-25.73Q549.95-28.99 547.52-28.99L547.52-28.99L547.52-28.99Q545.92-28.99 544.38-26.78L544.38-26.78L544.38-26.78Q542.85-24.58 542.14-20.16L542.14-20.16L538.18 0L525.70 1.28L529.15-16.13L529.15-16.13Q529.73-19.01 530.24-22.27L530.24-22.27L530.24-22.27Q530.75-25.54 530.75-26.05L530.75-26.05L530.75-26.05Q530.75-28.99 528.58-28.99L528.58-28.99L528.58-28.99Q527.10-28.99 525.50-26.82L525.50-26.82L525.50-26.82Q523.90-24.64 523.01-20.16L523.01-20.16L519.10 0L506.50 1.28L513.22-32.64L523.65-33.92L522.56-27.46L522.56-27.46Q524.22-30.91 527.30-32.42L527.30-32.42L527.30-32.42Q530.37-33.92 535.17-33.92L535.17-33.92L535.17-33.92Q537.92-33.92 539.71-32.58L539.71-32.58L539.71-32.58Q541.50-31.23 542.08-29.06L542.08-29.06L542.08-29.06Q543.17-31.30 545.95-32.61L545.95-32.61L545.95-32.61Q548.74-33.92 552.16-33.92L552.16-33.92L552.16-33.92Q555.58-33.92 557.28-33.18L557.28-33.18L557.28-33.18Q558.98-32.45 560-31.23L560-31.23L560-31.23Q561.73-28.99 561.73-24.90L561.73-24.90L561.73-24.90Q561.73-20.86 560-12.48L560-12.48L560-12.48Q559.10-8.38 559.10-6.88L559.10-6.88L559.10-6.88Q559.10-5.38 559.97-4.48L559.97-4.48L559.97-4.48Q560.83-3.58 562.11-3.46L562.11-3.46L562.11-3.46Q561.47-1.28 559.26 0L559.26 0L559.26 0Q557.06 1.28 554.18 1.28ZM565.12-3.78L565.12-3.78L565.12-3.78Q565.12-6.21 567.01-7.55L567.01-7.55L567.01-7.55Q568.90-8.90 571.58-8.90L571.58-8.90L571.58-8.90Q574.27-8.90 575.90-7.55L575.90-7.55L575.90-7.55Q577.54-6.21 577.54-3.78L577.54-3.78L577.54-3.78Q577.54-1.34 575.71-0.03L575.71-0.03L575.71-0.03Q573.89 1.28 571.20 1.28L571.20 1.28L571.20 1.28Q568.51 1.28 566.82-0.03L566.82-0.03L566.82-0.03Q565.12-1.34 565.12-3.78Z" fill="#ccc"></path>
    </g>
  </g>
  <style>text {
  font-size: 64px;
  font-family: Arial Black;
  dominant-baseline: central;
  text-anchor: middle;
}</style>
</svg>